<?xml version="1.0"?>
<svg version="1.1" xmlns="http://www.w3.org/2000/svg" width="200" height="40" style=""><path fill="#c73232" d="M15.713134765625,15.648193359375q-0.028076171875-0.342529296875,0.044921875-0.59521484375t0.2919921875-0.41552734375t0.701904296875-0.162841796875l1.80810546875,0q0.37060546875,0,0.971435546875,0.039306640625t1.29150390625,0.117919921875t1.375732421875,0.241455078125t1.252197265625,0.404296875t0.9208984375,0.59521484375t0.353759765625,0.836669921875q0,0.68505859375-0.398681640625,1.285888671875t-0.99951171875,1.083740234375t-1.26904296875,0.859130859375t-1.196044921875,0.679443359375q2.0888671875,0.46044921875,3.26806640625,1.9091796875t1.17919921875,3.6162109375q0,1.1455078125-0.43798828125,2.262939453125t-1.196044921875,2.015869140625t-1.796875,1.44873046875t-2.229248046875,0.55029296875q-0.1572265625,0-0.353759765625-0.03369140625t-0.359375-0.106689453125t-0.28076171875-0.207763671875t-0.117919921875-0.34814453125q0-0.98828125,1.06689453125-0.98828125q0.1796875,0,0.421142578125,0.050537109375t0.376220703125,0.207763671875q0.61767578125-0.25830078125,1.128662109375-0.81982421875t0.86474609375-1.252197265625t0.55029296875-1.44873046875t0.196533203125-1.375732421875q0-0.7412109375-0.218994140625-1.510498046875t-0.634521484375-1.42626953125t-1.02197265625-1.106201171875t-1.392578125-0.5615234375q-0.2021484375-0.0224609375-0.443603515625-0.03369140625l-0.48291015625-0.0224609375t-0.4716796875-0.0673828125t-0.398681640625-0.1796875q0.08984375,1.8642578125,0.230224609375,3.71728515625t0.376220703125,3.71728515625q0.08984375,0.08984375,0.12353515625,0.263916015625t0.05615234375,0.37060546875t0.0224609375,0.376220703125l0,0.30322265625q0,0.2021484375-0.134765625,0.331298828125t-0.320068359375,0.207763671875t-0.39306640625,0.10107421875t-0.364990234375,0.0224609375q-0.50537109375,0-0.77490234375-0.134765625t-0.3818359375-0.39306640625t-0.14599609375-0.589599609375t-0.05615234375-0.724365234375q-0.30322265625-3.13330078125-0.43798828125-6.19921875t-0.134765625-6.19921875q0-0.37060546875-0.028076171875-0.713134765625z M17.78515625,15.1708984375q0,1.38134765625,0.08984375,2.768310546875t0.1572265625,2.768310546875q0.50537109375-0.30322265625,1.3251953125-0.713134765625t1.589111328125-0.904052734375t1.319580078125-1.08935546875t0.55029296875-1.29150390625q0-0.55029296875-0.6513671875-0.836669921875t-1.51611328125-0.4267578125t-1.690185546875-0.174072265625t-1.173583984375-0.10107421875z M27.596879882812,27.31103515625q0-0.763671875,0.207763671875-1.47119140625t0.623291015625-1.263427734375t1.038818359375-0.88720703125t1.443115234375-0.331298828125q0.50537109375,0,1.117431640625,0.151611328125t1.151123046875,0.44921875t0.8984375,0.758056640625t0.359375,1.0556640625q0,0.28076171875-0.095458984375,0.4267578125t-0.387451171875,0.14599609375l-0.12353515625-0.0224609375q0.32568359375,0.8759765625,0.5615234375,1.796875t0.46044921875,1.841796875q0.08984375,0.1796875,0.134765625,0.320068359375t0.044921875,0.275146484375q0,0.1796875-0.10107421875,0.297607421875t-0.263916015625,0.174072265625t-0.3369140625,0.07861328125t-0.308837890625,0.0224609375q-0.48291015625,0-0.724365234375-0.16845703125t-0.34814453125-0.46044921875t-0.129150390625-0.656982421875t-0.08984375-0.735595703125q-0.134765625,0.43798828125-0.353759765625,0.853515625t-0.5166015625,0.746826171875t-0.701904296875,0.52783203125t-0.90966796875,0.196533203125q-0.7412109375,0-1.24658203125-0.4267578125t-0.814208984375-1.050048828125t-0.44921875-1.330810546875t-0.140380859375-1.31396484375z M29.191606445312,27.15380859375q0,0.41552734375,0.05615234375,0.8759765625t0.185302734375,0.90966796875t0.331298828125,0.847900390625t0.50537109375,0.701904296875q0.55029296875-0.59521484375,0.814208984375-1.44873046875t0.4716796875-1.645263671875t0.4716796875-1.35888671875t0.814208984375-0.567138671875q0.34814453125,0,0.583984375,0.12353515625q-0.1123046875-0.28076171875-0.37060546875-0.544677734375t-0.578369140625-0.48291015625t-0.66259765625-0.359375t-0.645751953125-0.140380859375q-0.08984375,0-0.207763671875,0.028076171875t-0.185302734375,0.005615234375q-0.46044921875,0.134765625-0.758056640625,0.466064453125t-0.48291015625,0.780517578125t-0.263916015625,0.9208984375t-0.07861328125,0.88720703125z M37.329990234375,24.16650390625q0-0.46044921875,0.162841796875-0.77490234375t0.690673828125-0.314453125q0.2021484375,0,0.50537109375,0.061767578125t0.34814453125,0.308837890625q0.1123046875,0.66259765625,0.12353515625,1.4375t0.07861328125,1.4599609375q0.25830078125-0.50537109375,0.66259765625-1.08935546875t0.9208984375-1.078125t1.123046875-0.81982421875t1.2353515625-0.32568359375q0.044921875,0,0.16845703125,0.03369140625t0.230224609375,0.095458984375t0.129150390625,0.140380859375t-0.12353515625,0.14599609375q-0.044921875,0.134765625-0.19091796875,0.162841796875t-0.25830078125,0.028076171875q-0.0673828125,0-0.21337890625-0.05615234375q-0.8310546875,0.43798828125-1.4150390625,1.1904296875t-0.95458984375,1.667724609375t-0.5390625,1.931640625t-0.16845703125,1.982177734375q0,0.48291015625-0.218994140625,0.583984375t-0.701904296875,0.10107421875q-0.25830078125,0-0.544677734375-0.05615234375t-0.398681640625-0.359375q-0.2021484375-0.64013671875-0.331298828125-1.47119140625t-0.196533203125-1.712646484375t-0.095458984375-1.735107421875t-0.028076171875-1.53857421875z M45.311147460937,24.04296875q0-0.7861328125,0.072998046875-2.0439453125t0.174072265625-2.59423828125t0.252685546875-2.532470703125t0.331298828125-1.836181640625q0.0673828125-0.28076171875,0.320068359375-0.3369140625t0.510986328125-0.05615234375q0.34814453125,0,0.600830078125,0.12353515625t0.252685546875,0.5390625q0,2.0439453125-0.252685546875,4.093505859375t-0.275146484375,4.093505859375q0.34814453125-0.52783203125,0.8984375-0.791748046875t1.16796875-0.263916015625q0.853515625,0,1.47119140625,0.34814453125t0.99951171875,0.8984375t0.567138671875,1.274658203125t0.185302734375,1.476806640625q0,0.41552734375-0.084228515625,1.038818359375t-0.252685546875,1.31396484375t-0.4267578125,1.3701171875t-0.612060546875,1.218505859375t-0.814208984375,0.870361328125t-1.0107421875,0.331298828125q-0.1123046875,0-0.297607421875-0.03369140625t-0.37060546875-0.10107421875t-0.308837890625-0.174072265625t-0.12353515625-0.263916015625q0-0.1796875,0.218994140625-0.252685546875t0.353759765625-0.072998046875q0.50537109375-0.224609375,0.8984375-0.937744140625t0.656982421875-1.566650390625t0.398681640625-1.690185546875t0.134765625-1.364501953125q0-0.30322265625-0.08984375-0.80859375t-0.275146484375-0.99951171875t-0.50537109375-0.853515625t-0.758056640625-0.359375q-0.52783203125,0-0.84228515625,0.544677734375t-0.494140625,1.26904296875t-0.241455078125,1.49365234375t-0.061767578125,1.207275390625q0,0.28076171875,0.095458984375,0.555908203125t0.218994140625,0.55029296875t0.218994140625,0.5615234375t0.095458984375,0.567138671875q0,0.134765625-0.117919921875,0.224609375t-0.275146484375,0.14599609375t-0.331298828125,0.072998046875t-0.263916015625,0.016845703125q-0.64013671875,0-0.88720703125-0.30322265625t-0.4267578125-0.853515625q-0.39306640625-1.24658203125-0.544677734375-2.532470703125t-0.151611328125-2.577392578125z M54.88703125,27.771484375q0-0.7861328125,0.174072265625-1.85302734375t0.589599609375-2.021484375t1.094970703125-1.622802734375t1.712646484375-0.668212890625q0.9658203125,0,1.44873046875,0.555908203125t0.48291015625,1.499267578125q0,0.61767578125-0.230224609375,1.353271484375t-0.656982421875,1.392578125t-1.0107421875,1.094970703125t-1.302734375,0.43798828125l-0.2919921875-0.0224609375q0,0.30322265625,0.08984375,0.814208984375t0.263916015625,1.016357421875t0.44921875,0.88720703125t0.668212890625,0.3818359375q0.57275390625,0,1.1005859375-0.46044921875t0.99951171875-1.02197265625t0.8759765625-1.02197265625t0.7412109375-0.46044921875q0.1796875,0,0.37060546875,0.05615234375t0.21337890625,0.314453125q0,0.1572265625-0.084228515625,0.25830078125t-0.151611328125,0.224609375q-0.34814453125,0.59521484375-0.758056640625,1.13427734375t-0.926513671875,0.97705078125t-1.128662109375,0.690673828125t-1.353271484375,0.252685546875q-0.9658203125,0-1.60595703125-0.342529296875t-1.033203125-0.9208984375t-0.567138671875-1.33642578125t-0.174072265625-1.589111328125z M56.89728515625,26.91796875l0.314453125,0.28076171875q0.224609375,0.2021484375,0.44921875,0.08984375t0.404296875-0.409912109375t0.331298828125-0.735595703125t0.26953125-0.8984375t0.174072265625-0.8984375t0.05615234375-0.72998046875l0-0.3818359375t-0.03369140625-0.404296875t-0.117919921875-0.320068359375t-0.263916015625-0.162841796875q-0.05615234375-0.01123046875-0.10107421875-0.01123046875q-0.3818359375,0-0.6513671875,0.48291015625q-0.2919921875,0.5390625-0.4716796875,1.308349609375t-0.25830078125,1.577880859375t-0.10107421875,1.212890625z M64.271997070313,24.16650390625q0-0.46044921875,0.162841796875-0.77490234375t0.690673828125-0.314453125q0.2021484375,0,0.50537109375,0.061767578125t0.34814453125,0.308837890625q0.1123046875,0.66259765625,0.12353515625,1.4375t0.07861328125,1.4599609375q0.25830078125-0.50537109375,0.66259765625-1.08935546875t0.9208984375-1.078125t1.123046875-0.81982421875t1.2353515625-0.32568359375q0.044921875,0,0.16845703125,0.03369140625t0.230224609375,0.095458984375t0.129150390625,0.140380859375t-0.12353515625,0.14599609375q-0.044921875,0.134765625-0.19091796875,0.162841796875t-0.25830078125,0.028076171875q-0.0673828125,0-0.21337890625-0.05615234375q-0.8310546875,0.43798828125-1.4150390625,1.1904296875t-0.95458984375,1.667724609375t-0.5390625,1.931640625t-0.16845703125,1.982177734375q0,0.48291015625-0.218994140625,0.583984375t-0.701904296875,0.10107421875q-0.25830078125,0-0.544677734375-0.05615234375t-0.398681640625-0.359375q-0.2021484375-0.64013671875-0.331298828125-1.47119140625t-0.196533203125-1.712646484375t-0.095458984375-1.735107421875t-0.028076171875-1.53857421875z M72.342998046875,18.8095703125q0-0.134765625,0.185302734375-0.39306640625t0.4267578125-0.499755859375l0.43798828125-0.43798828125t0.241455078125-0.218994140625q0.61767578125-0.55029296875,1.31396484375-0.55029296875q0.25830078125,0,0.555908203125,0.106689453125t0.297607421875,0.286376953125q0,0.1123046875-0.095458984375,0.174072265625t-0.162841796875,0.106689453125q-0.134765625,0-0.297607421875,0.1572265625t-0.359375,0.398681640625t-0.4267578125,0.52783203125t-0.477294921875,0.544677734375q-0.1572265625,0.1796875-0.44921875,0.2021484375t-0.404296875,0.0224609375q-0.2021484375,0-0.494140625-0.08984375t-0.2919921875-0.3369140625z M72.668681640625,27.04150390625q0-1.033203125,0.241455078125-2.027099609375t0.409912109375-1.982177734375q0.044921875-0.25830078125,0.353759765625-0.320068359375t0.510986328125-0.061767578125q0.3818359375,0,0.6064453125,0.1123046875q0.08984375,0.044921875,0.16845703125,0.10107421875t0.07861328125,0.14599609375q0,0.9658203125-0.230224609375,1.88671875t-0.230224609375,1.9541015625q0,0.34814453125,0.044921875,0.656982421875t0.10107421875,0.612060546875l0.0673828125,0.32568359375q0,0.08984375,0.01123046875,0.1572265625t0.03369140625,0.1572265625q0,0.2021484375-0.286376953125,0.275146484375t-0.499755859375,0.072998046875q-0.32568359375,0-0.600830078125-0.129150390625t-0.432373046875-0.443603515625l-0.1572265625-0.32568359375q-0.134765625-0.25830078125-0.140380859375-0.578369140625t-0.050537109375-0.589599609375z M78.212827148438,27.31103515625q0-0.763671875,0.207763671875-1.47119140625t0.623291015625-1.263427734375t1.038818359375-0.88720703125t1.443115234375-0.331298828125q0.50537109375,0,1.117431640625,0.151611328125t1.151123046875,0.44921875t0.8984375,0.758056640625t0.359375,1.0556640625q0,0.28076171875-0.095458984375,0.4267578125t-0.387451171875,0.14599609375l-0.12353515625-0.0224609375q0.32568359375,0.8759765625,0.5615234375,1.796875t0.46044921875,1.841796875q0.08984375,0.1796875,0.134765625,0.320068359375t0.044921875,0.275146484375q0,0.1796875-0.10107421875,0.297607421875t-0.263916015625,0.174072265625t-0.3369140625,0.07861328125t-0.308837890625,0.0224609375q-0.48291015625,0-0.724365234375-0.16845703125t-0.34814453125-0.46044921875t-0.129150390625-0.656982421875t-0.08984375-0.735595703125q-0.134765625,0.43798828125-0.353759765625,0.853515625t-0.5166015625,0.746826171875t-0.701904296875,0.52783203125t-0.90966796875,0.196533203125q-0.7412109375,0-1.24658203125-0.4267578125t-0.814208984375-1.050048828125t-0.44921875-1.330810546875t-0.140380859375-1.31396484375z M79.807553710937,27.15380859375q0,0.41552734375,0.05615234375,0.8759765625t0.185302734375,0.90966796875t0.331298828125,0.847900390625t0.50537109375,0.701904296875q0.55029296875-0.59521484375,0.814208984375-1.44873046875t0.4716796875-1.645263671875t0.4716796875-1.35888671875t0.814208984375-0.567138671875q0.34814453125,0,0.583984375,0.12353515625q-0.1123046875-0.28076171875-0.37060546875-0.544677734375t-0.578369140625-0.48291015625t-0.66259765625-0.359375t-0.645751953125-0.140380859375q-0.08984375,0-0.207763671875,0.028076171875t-0.185302734375,0.005615234375q-0.46044921875,0.134765625-0.758056640625,0.466064453125t-0.48291015625,0.780517578125t-0.263916015625,0.9208984375t-0.07861328125,0.88720703125z M92.322114257813,27.91748046875q0-2.43701171875,0.218994140625-4.879638671875t0.915283203125-4.812255859375q0.2021484375-0.70751953125,0.52783203125-1.398193359375t0.79736328125-1.229736328125t1.123046875-0.8759765625t1.5498046875-0.3369140625l0.23583984375,0.0224609375q0.9658203125,0.134765625,1.42626953125,0.780517578125t0.46044921875,1.611572265625q0,0.25830078125-0.061767578125,0.645751953125t-0.196533203125,0.746826171875t-0.364990234375,0.612060546875t-0.578369140625,0.252685546875q-0.1572265625-0.0224609375-0.286376953125-0.05615234375t-0.241455078125-0.14599609375q0.1796875-0.39306640625,0.320068359375-0.81982421875t0.140380859375-0.97705078125q0-0.2021484375-0.03369140625-0.5166015625t-0.129150390625-0.623291015625t-0.252685546875-0.5390625t-0.43798828125-0.230224609375q-0.70751953125,0-1.1904296875,0.791748046875t-0.80859375,2.021484375t-0.48291015625,2.7177734375t-0.241455078125,2.875t-0.095458984375,2.50439453125t-0.01123046875,1.577880859375q0,0.5390625-0.01123046875,1.1904296875l0,0.14599609375q0.01123046875,0.57275390625,0.07861328125,1.08935546875q0.08984375,0.583984375,0.34814453125,1.0107421875t0.80859375,0.494140625q0.16845703125,0.0224609375,0.32568359375,0.0224609375q0.6513671875,0,1.17919921875-0.37060546875q0.6513671875-0.46044921875,1.15673828125-1.196044921875t0.8984375-1.6171875t0.724365234375-1.667724609375t0.645751953125-1.302734375t0.6513671875-0.5166015625q0.1123046875,0,0.3369140625,0.044921875t0.224609375,0.21337890625q0,0.044921875-0.0224609375,0.12353515625t-0.05615234375,0.12353515625q-0.30322265625,1.1904296875-0.769287109375,2.470703125t-1.1904296875,2.330322265625t-1.7744140625,1.712646484375t-2.521240234375,0.66259765625q-1.0556640625,0-1.712646484375-0.398681640625t-1.0107421875-1.06689453125t-0.48291015625-1.510498046875t-0.129150390625-1.70703125z M104.29008789063,27.31103515625q0-0.763671875,0.207763671875-1.47119140625t0.623291015625-1.263427734375t1.038818359375-0.88720703125t1.443115234375-0.331298828125q0.50537109375,0,1.117431640625,0.151611328125t1.151123046875,0.44921875t0.8984375,0.758056640625t0.359375,1.0556640625q0,0.28076171875-0.095458984375,0.4267578125t-0.387451171875,0.14599609375l-0.12353515625-0.0224609375q0.32568359375,0.8759765625,0.5615234375,1.796875t0.46044921875,1.841796875q0.08984375,0.1796875,0.134765625,0.320068359375t0.044921875,0.275146484375q0,0.1796875-0.10107421875,0.297607421875t-0.263916015625,0.174072265625t-0.3369140625,0.07861328125t-0.308837890625,0.0224609375q-0.48291015625,0-0.724365234375-0.16845703125t-0.34814453125-0.46044921875t-0.129150390625-0.656982421875t-0.08984375-0.735595703125q-0.134765625,0.43798828125-0.353759765625,0.853515625t-0.5166015625,0.746826171875t-0.701904296875,0.52783203125t-0.90966796875,0.196533203125q-0.7412109375,0-1.24658203125-0.4267578125t-0.814208984375-1.050048828125t-0.44921875-1.330810546875t-0.140380859375-1.31396484375z M105.88481445313,27.15380859375q0,0.41552734375,0.05615234375,0.8759765625t0.185302734375,0.90966796875t0.331298828125,0.847900390625t0.50537109375,0.701904296875q0.55029296875-0.59521484375,0.814208984375-1.44873046875t0.4716796875-1.645263671875t0.4716796875-1.35888671875t0.814208984375-0.567138671875q0.34814453125,0,0.583984375,0.12353515625q-0.1123046875-0.28076171875-0.37060546875-0.544677734375t-0.578369140625-0.48291015625t-0.66259765625-0.359375t-0.645751953125-0.140380859375q-0.08984375,0-0.207763671875,0.028076171875t-0.185302734375,0.005615234375q-0.46044921875,0.134765625-0.758056640625,0.466064453125t-0.48291015625,0.780517578125t-0.263916015625,0.9208984375t-0.07861328125,0.88720703125z M114.02319824219,24.41357421875q0-0.46044921875,0.26953125-0.791748046875t0.656982421875-0.5390625t0.847900390625-0.308837890625t0.853515625-0.10107421875q0.30322265625,0,0.80859375,0.08984375t0.98828125,0.26953125t0.836669921875,0.4716796875t0.353759765625,0.68505859375q0,0.1796875-0.134765625,0.320068359375t-0.28076171875,0.140380859375q-0.30322265625,0-0.55029296875-0.196533203125t-0.510986328125-0.41552734375t-0.578369140625-0.41552734375t-0.70751953125-0.196533203125t-0.713134765625,0.252685546875t-0.320068359375,0.668212890625q0,0.68505859375,0.48291015625,1.342041015625t1.061279296875,1.38134765625t1.061279296875,1.521728515625t0.48291015625,1.76318359375q0,0.41552734375-0.174072265625,0.701904296875t-0.46044921875,0.466064453125t-0.645751953125,0.275146484375t-0.6962890625,0.095458984375q-0.37060546875,0-0.86474609375-0.174072265625t-0.93212890625-0.46044921875t-0.735595703125-0.668212890625t-0.297607421875-0.79736328125q0-0.2021484375,0.286376953125-0.25830078125t0.421142578125-0.05615234375q0.0673828125,0,0.207763671875,0.044921875t0.275146484375,0.10107421875t0.241455078125,0.12353515625t0.084228515625,0.14599609375q0.1123046875,0.134765625,0.342529296875,0.398681640625t0.46044921875,0.4267578125t0.404296875,0.117919921875t0.174072265625-0.50537109375q0-0.8759765625-0.4716796875-1.611572265625t-1.027587890625-1.4375t-1.027587890625-1.392578125t-0.4716796875-1.476806640625z M121.93697265625,27.31103515625q0-0.763671875,0.207763671875-1.47119140625t0.623291015625-1.263427734375t1.038818359375-0.88720703125t1.443115234375-0.331298828125q0.50537109375,0,1.117431640625,0.151611328125t1.151123046875,0.44921875t0.8984375,0.758056640625t0.359375,1.0556640625q0,0.28076171875-0.095458984375,0.4267578125t-0.387451171875,0.14599609375l-0.12353515625-0.0224609375q0.32568359375,0.8759765625,0.5615234375,1.796875t0.46044921875,1.841796875q0.08984375,0.1796875,0.134765625,0.320068359375t0.044921875,0.275146484375q0,0.1796875-0.10107421875,0.297607421875t-0.263916015625,0.174072265625t-0.3369140625,0.07861328125t-0.308837890625,0.0224609375q-0.48291015625,0-0.724365234375-0.16845703125t-0.34814453125-0.46044921875t-0.129150390625-0.656982421875t-0.08984375-0.735595703125q-0.134765625,0.43798828125-0.353759765625,0.853515625t-0.5166015625,0.746826171875t-0.701904296875,0.52783203125t-0.90966796875,0.196533203125q-0.7412109375,0-1.24658203125-0.4267578125t-0.814208984375-1.050048828125t-0.44921875-1.330810546875t-0.140380859375-1.31396484375z M123.53169921875,27.15380859375q0,0.41552734375,0.05615234375,0.8759765625t0.185302734375,0.90966796875t0.331298828125,0.847900390625t0.50537109375,0.701904296875q0.55029296875-0.59521484375,0.814208984375-1.44873046875t0.4716796875-1.645263671875t0.4716796875-1.35888671875t0.814208984375-0.567138671875q0.34814453125,0,0.583984375,0.12353515625q-0.1123046875-0.28076171875-0.37060546875-0.544677734375t-0.578369140625-0.48291015625t-0.66259765625-0.359375t-0.645751953125-0.140380859375q-0.08984375,0-0.207763671875,0.028076171875t-0.185302734375,0.005615234375q-0.46044921875,0.134765625-0.758056640625,0.466064453125t-0.48291015625,0.780517578125t-0.263916015625,0.9208984375t-0.07861328125,0.88720703125z M131.69815917969,15.648193359375q-0.028076171875-0.342529296875,0.044921875-0.59521484375t0.2919921875-0.41552734375t0.701904296875-0.162841796875l1.80810546875,0q0.37060546875,0,0.971435546875,0.039306640625t1.29150390625,0.117919921875t1.375732421875,0.241455078125t1.252197265625,0.404296875t0.9208984375,0.59521484375t0.353759765625,0.836669921875q0,0.68505859375-0.398681640625,1.285888671875t-0.99951171875,1.083740234375t-1.26904296875,0.859130859375t-1.196044921875,0.679443359375q2.0888671875,0.46044921875,3.26806640625,1.9091796875t1.17919921875,3.6162109375q0,1.1455078125-0.43798828125,2.262939453125t-1.196044921875,2.015869140625t-1.796875,1.44873046875t-2.229248046875,0.55029296875q-0.1572265625,0-0.353759765625-0.03369140625t-0.359375-0.106689453125t-0.28076171875-0.207763671875t-0.117919921875-0.34814453125q0-0.98828125,1.06689453125-0.98828125q0.1796875,0,0.421142578125,0.050537109375t0.376220703125,0.207763671875q0.61767578125-0.25830078125,1.128662109375-0.81982421875t0.86474609375-1.252197265625t0.55029296875-1.44873046875t0.196533203125-1.375732421875q0-0.7412109375-0.218994140625-1.510498046875t-0.634521484375-1.42626953125t-1.02197265625-1.106201171875t-1.392578125-0.5615234375q-0.2021484375-0.0224609375-0.443603515625-0.03369140625l-0.48291015625-0.0224609375t-0.4716796875-0.0673828125t-0.398681640625-0.1796875q0.08984375,1.8642578125,0.230224609375,3.71728515625t0.376220703125,3.71728515625q0.08984375,0.08984375,0.12353515625,0.263916015625t0.05615234375,0.37060546875t0.0224609375,0.376220703125l0,0.30322265625q0,0.2021484375-0.134765625,0.331298828125t-0.320068359375,0.207763671875t-0.39306640625,0.10107421875t-0.364990234375,0.0224609375q-0.50537109375,0-0.77490234375-0.134765625t-0.3818359375-0.39306640625t-0.14599609375-0.589599609375t-0.05615234375-0.724365234375q-0.30322265625-3.13330078125-0.43798828125-6.19921875t-0.134765625-6.19921875q0-0.37060546875-0.028076171875-0.713134765625z M133.77018066406,15.1708984375q0,1.38134765625,0.08984375,2.768310546875t0.1572265625,2.768310546875q0.50537109375-0.30322265625,1.3251953125-0.713134765625t1.589111328125-0.904052734375t1.319580078125-1.08935546875t0.55029296875-1.29150390625q0-0.55029296875-0.6513671875-0.836669921875t-1.51611328125-0.4267578125t-1.690185546875-0.174072265625t-1.173583984375-0.10107421875z M143.58190429687,31.2978515625q0-0.32568359375,0.028076171875-0.68505859375t0.050537109375-0.673828125l0.0673828125-1.6845703125q0.1123046875-2.021484375,0.275146484375-3.9755859375t0.275146484375-3.953125q0.0673828125-1.1005859375,0.10107421875-2.161865234375t0.10107421875-2.161865234375q-0.044921875-0.08984375-0.044921875-0.12353515625q0-0.1572265625,0.117919921875-0.2470703125t0.275146484375-0.151611328125t0.331298828125-0.084228515625t0.263916015625-0.0224609375l0.25830078125,0q0.34814453125,0.044921875,0.50537109375,0.218994140625t0.2021484375,0.41552734375t0.0224609375,0.5166015625t-0.0224609375,0.510986328125q0,1.62841796875-0.07861328125,3.318603515625t-0.1796875,3.3916015625t-0.185302734375,3.40283203125t-0.084228515625,3.363525390625l0,0.7861328125q0,0.52783203125-0.297607421875,0.6962890625t-0.825439453125,0.16845703125q-0.46044921875,0-0.80859375-0.2021484375t-0.34814453125-0.66259765625z M148.73298339844,27.31103515625q0-0.763671875,0.207763671875-1.47119140625t0.623291015625-1.263427734375t1.038818359375-0.88720703125t1.443115234375-0.331298828125q0.50537109375,0,1.117431640625,0.151611328125t1.151123046875,0.44921875t0.8984375,0.758056640625t0.359375,1.0556640625q0,0.28076171875-0.095458984375,0.4267578125t-0.387451171875,0.14599609375l-0.12353515625-0.0224609375q0.32568359375,0.8759765625,0.5615234375,1.796875t0.46044921875,1.841796875q0.08984375,0.1796875,0.134765625,0.320068359375t0.044921875,0.275146484375q0,0.1796875-0.10107421875,0.297607421875t-0.263916015625,0.174072265625t-0.3369140625,0.07861328125t-0.308837890625,0.0224609375q-0.48291015625,0-0.724365234375-0.16845703125t-0.34814453125-0.46044921875t-0.129150390625-0.656982421875t-0.08984375-0.735595703125q-0.134765625,0.43798828125-0.353759765625,0.853515625t-0.5166015625,0.746826171875t-0.701904296875,0.52783203125t-0.90966796875,0.196533203125q-0.7412109375,0-1.24658203125-0.4267578125t-0.814208984375-1.050048828125t-0.44921875-1.330810546875t-0.140380859375-1.31396484375z M150.32770996094,27.15380859375q0,0.41552734375,0.05615234375,0.8759765625t0.185302734375,0.90966796875t0.331298828125,0.847900390625t0.50537109375,0.701904296875q0.55029296875-0.59521484375,0.814208984375-1.44873046875t0.4716796875-1.645263671875t0.4716796875-1.35888671875t0.814208984375-0.567138671875q0.34814453125,0,0.583984375,0.12353515625q-0.1123046875-0.28076171875-0.37060546875-0.544677734375t-0.578369140625-0.48291015625t-0.66259765625-0.359375t-0.645751953125-0.140380859375q-0.08984375,0-0.207763671875,0.028076171875t-0.185302734375,0.005615234375q-0.46044921875,0.134765625-0.758056640625,0.466064453125t-0.48291015625,0.780517578125t-0.263916015625,0.9208984375t-0.07861328125,0.88720703125z M158.47732421875,27.3671875l0-0.32568359375q0-0.404296875,0.0224609375-0.763671875q0.0224609375-0.50537109375,0.0224609375-0.8310546875q0-0.1796875,0.0224609375-0.409912109375t0.1123046875-0.364990234375q0.1123046875-0.1123046875,0.263916015625-0.230224609375t0.331298828125-0.117919921875q0.57275390625,0,0.8984375,0.129150390625t0.34814453125,0.533447265625l0.044921875,0.34814453125q0.2021484375-0.48291015625,0.5390625-1.196044921875t0.780517578125-1.35888671875t0.99951171875-1.1005859375t1.173583984375-0.454833984375q0.57275390625,0,0.943359375,0.5390625t0.589599609375,1.375732421875t0.308837890625,1.8642578125t0.12353515625,2.015869140625t0.044921875,1.802490234375t0.07861328125,1.229736328125q0.044921875,0.34814453125,0.151611328125,0.735595703125t0.106689453125,0.713134765625q0,0.08984375-0.129150390625,0.174072265625t-0.275146484375,0.140380859375t-0.297607421875,0.08984375t-0.218994140625,0.03369140625q-0.43798828125,0-0.623291015625-0.656982421875t-0.230224609375-1.645263671875t-0.044921875-2.139404296875t-0.07861328125-2.139404296875t-0.320068359375-1.645263671875t-0.769287109375-0.679443359375q-0.48291015625,0-0.99951171875,0.623291015625t-0.88720703125,1.656494140625q-0.359375,1.033203125-0.494140625,2.34716796875q-0.044921875,0.41552734375-0.044921875,0.8310546875q0,0.90966796875,0.19091796875,1.8193359375q0.0224609375,0.1572265625-0.129150390625,0.23583984375t-0.376220703125,0.12353515625t-0.454833984375,0.05615234375t-0.353759765625,0.01123046875q-0.43798828125,0-0.701904296875-0.308837890625t-0.409912109375-0.791748046875t-0.196533203125-1.083740234375t-0.061767578125-1.184814453125z M168.68211425781,27.08642578125q0-0.80859375,0.207763671875-1.622802734375t0.645751953125-1.4599609375t1.117431640625-1.050048828125t1.600341796875-0.404296875q0.39306640625,0,0.86474609375,0.095458984375t0.870361328125,0.30322265625t0.673828125,0.5390625t0.275146484375,0.814208984375q0,0.30322265625-0.1572265625,0.404296875t-0.41552734375,0.10107421875l-0.07861328125-0.1123046875t-0.218994140625-0.286376953125t-0.297607421875-0.37060546875t-0.30322265625-0.331298828125q-0.46044921875-0.46044921875-0.86474609375-0.494140625l-0.08984375,0q-0.3369140625,0-0.62890625,0.2021484375q-0.32568359375,0.2470703125-0.578369140625,0.6962890625t-0.421142578125,0.95458984375t-0.263916015625,1.02197265625t-0.095458984375,0.853515625q0,0.46044921875,0.106689453125,1.050048828125t0.359375,1.117431640625t0.64013671875,0.88720703125t0.993896484375,0.359375q0.55029296875,0,0.99951171875-0.26953125t0.859130859375-0.600830078125t0.802978515625-0.59521484375t0.80859375-0.263916015625q0.1796875,0,0.364990234375,0.044921875t0.185302734375,0.23583984375l0,0.0673828125q-0.2021484375,0.52783203125-0.68505859375,0.93212890625t-1.083740234375,0.701904296875t-1.24658203125,0.443603515625t-1.151123046875,0.14599609375q-0.943359375,0-1.656494140625-0.308837890625t-1.184814453125-0.847900390625t-0.713134765625-1.297119140625t-0.241455078125-1.656494140625z M178.48260742187,27.31103515625q0-0.763671875,0.207763671875-1.47119140625t0.623291015625-1.263427734375t1.038818359375-0.88720703125t1.443115234375-0.331298828125q0.50537109375,0,1.117431640625,0.151611328125t1.151123046875,0.44921875t0.8984375,0.758056640625t0.359375,1.0556640625q0,0.28076171875-0.095458984375,0.4267578125t-0.387451171875,0.14599609375l-0.12353515625-0.0224609375q0.32568359375,0.8759765625,0.5615234375,1.796875t0.46044921875,1.841796875q0.08984375,0.1796875,0.134765625,0.320068359375t0.044921875,0.275146484375q0,0.1796875-0.10107421875,0.297607421875t-0.263916015625,0.174072265625t-0.3369140625,0.07861328125t-0.308837890625,0.0224609375q-0.48291015625,0-0.724365234375-0.16845703125t-0.34814453125-0.46044921875t-0.129150390625-0.656982421875t-0.08984375-0.735595703125q-0.134765625,0.43798828125-0.353759765625,0.853515625t-0.5166015625,0.746826171875t-0.701904296875,0.52783203125t-0.90966796875,0.196533203125q-0.7412109375,0-1.24658203125-0.4267578125t-0.814208984375-1.050048828125t-0.44921875-1.330810546875t-0.140380859375-1.31396484375z M180.07733398437,27.15380859375q0,0.41552734375,0.05615234375,0.8759765625t0.185302734375,0.90966796875t0.331298828125,0.847900390625t0.50537109375,0.701904296875q0.55029296875-0.59521484375,0.814208984375-1.44873046875t0.4716796875-1.645263671875t0.4716796875-1.35888671875t0.814208984375-0.567138671875q0.34814453125,0,0.583984375,0.12353515625q-0.1123046875-0.28076171875-0.37060546875-0.544677734375t-0.578369140625-0.48291015625t-0.66259765625-0.359375t-0.645751953125-0.140380859375q-0.08984375,0-0.207763671875,0.028076171875t-0.185302734375,0.005615234375q-0.46044921875,0.134765625-0.758056640625,0.466064453125t-0.48291015625,0.780517578125t-0.263916015625,0.9208984375t-0.07861328125,0.88720703125z"/><path fill="#c73250" d=""/></svg>
